<?xml version="1.0" encoding="utf-8"?>
<!-- Generator: Adobe Illustrator 24.1.1, SVG Export Plug-In . SVG Version: 6.00 Build 0)  -->
<svg version="1.1" id="Layer_1" xmlns="http://www.w3.org/2000/svg" xmlns:xlink="http://www.w3.org/1999/xlink" x="0px" y="0px"
	 viewBox="0 0 512 512" style="enable-background:new 0 0 512 512;" xml:space="preserve">
<g>
	<path d="M490.7,64.8l-12.3-17.4c-18.5,13.1-39.1,23.1-60.8,29.6l6.2,20.4l16.1-14c-23.1-26.5-55.7-40.2-88.3-40.2
		c-27.1,0-54.6,9.5-76.7,28.7l0,0c-25.6,22.2-40.2,54.4-40.2,88.2v0l0,1.6l21.3-0.3h-21.3v21.3H256l-0.6-21.3l-5.3,0.1
		c-67,0-130-32.6-168.6-87.6c-4.4-6.3-11.9-9.7-19.5-9c-7.7,0.7-14.3,5.5-17.4,12.6c-0.6,1.6-20.6,46.2-20.7,105.1
		c0,33.1,6.5,71,27.6,107c21,36,56.4,69.4,110.7,93.4l8.7-19.5l-12-17.7C121,371.4,76.6,385,31.2,385c-3,0-6-0.1-9-0.2
		c-9.8-0.4-18.7,6.1-21.4,15.6S2.4,420,11,424.8c53.4,29.7,110.2,43.9,165.1,43.9c77.2,0,150.8-28.4,205-81.5
		c54.2-53.1,88.4-130.9,88.3-226.4l0-0.1c0-7.3-0.7-14.5-2.1-21.6l-21,4l15,15.2c24.6-24.3,41.9-54.9,50.1-88.4
		c2.1-8.6-1.4-17.7-8.7-22.7c-7.3-5-17-4.9-24.3,0.2L490.7,64.8l-20.7-5c-6.3,25.9-19.7,49.5-38.6,68.2c-5.1,5-7.3,12.2-6,19.2
		c0.9,4.5,1.3,9.2,1.3,13.8l0-0.1c-0.1,85.5-29.8,151-75.5,196c-45.8,44.9-108.2,69.3-175.1,69.3c-47.5,0-97.1-12.3-144.4-38.6
		l-10.4,18.6l-0.8,21.3c3.6,0.1,7.2,0.2,10.7,0.2c53.9,0,106.7-16.2,151.4-46.5c6.4-4.4,10-11.8,9.3-19.5
		c-0.7-7.7-5.5-14.4-12.6-17.6c-47.4-21.2-74.7-48-91.1-75.9c-16.3-28-21.7-57.9-21.8-85.5c0-24.5,4.3-46.8,8.7-62.8
		c2.2-8,4.4-14.4,5.9-18.8c0.8-2.2,1.4-3.8,1.9-4.9l0.5-1.1l0.1-0.2l-3-1.3l3,1.3l0,0l-3-1.3l3,1.3L64,86.1L46.5,98.4
		c46.7,66.4,122.7,105.8,203.6,105.8c2.1,0,4.3,0,6.4-0.1c11.6-0.3,20.8-9.7,20.8-21.3v-21.3l0-0.3l0-1c0-21.5,9.3-41.9,25.5-56l0,0
		C317,91.9,334.2,86,351.5,85.9c20.8,0,41.3,8.6,56.1,25.5c5.5,6.3,14.2,8.8,22.3,6.4C456,110,480.7,98,503,82.2L490.7,64.8l-20.7-5
		L490.7,64.8z"/>
</g>
</svg>
